<svg width="1600" height="960" viewBox="0 0 1600 960" fill="none" xmlns="http://www.w3.org/2000/svg">
  <defs>
    <linearGradient id="bg" x1="0" y1="0" x2="0" y2="960" gradientUnits="userSpaceOnUse">
      <stop stop-color="#FBF4EA"/>
      <stop offset="1" stop-color="#F0E2D1"/>
    </linearGradient>
    <linearGradient id="brand" x1="0" y1="0" x2="1" y2="1">
      <stop stop-color="#17283E"/>
      <stop offset="1" stop-color="#2F66D7"/>
    </linearGradient>
    <linearGradient id="dark" x1="0" y1="0" x2="0" y2="1">
      <stop stop-color="#131924"/>
      <stop offset="1" stop-color="#0C1016"/>
    </linearGradient>
    <filter id="shadow" x="-20%" y="-20%" width="140%" height="140%">
      <feDropShadow dx="0" dy="18" stdDeviation="24" flood-color="#112030" flood-opacity="0.12"/>
    </filter>
  </defs>

  <rect width="1600" height="960" fill="url(#bg)"/>
  <circle cx="170" cy="130" r="220" fill="#D1673F" fill-opacity="0.12"/>
  <circle cx="1380" cy="120" r="180" fill="#2F66D7" fill-opacity="0.1"/>

  <rect x="24" y="20" width="1552" height="160" rx="30" fill="white" fill-opacity="0.58" stroke="white" stroke-opacity="0.68" filter="url(#shadow)"/>
  <rect x="54" y="46" width="52" height="52" rx="16" fill="url(#brand)"/>
  <text x="80" y="78" text-anchor="middle" fill="#FFF8F1" font-family="IBM Plex Mono, monospace" font-size="15" font-weight="600">AT</text>
  <text x="126" y="58" fill="#59708B" font-family="IBM Plex Mono, monospace" font-size="12" letter-spacing="1.5">ALPHATRADE STUDIO</text>
  <text x="126" y="97" fill="#142438" font-family="Instrument Sans, Arial, sans-serif" font-size="34" font-weight="700">Model-driven structure, targets, invalidation, and replay.</text>
  <rect x="54" y="124" width="146" height="36" rx="18" fill="url(#brand)"/>
  <text x="127" y="146" text-anchor="middle" fill="#FFF8F1" font-family="IBM Plex Mono, monospace" font-size="12">TECHNICAL ANALYSIS</text>

  <rect x="24" y="200" width="1128" height="736" rx="30" fill="url(#dark)" stroke="white" stroke-opacity="0.08" filter="url(#shadow)"/>
  <rect x="1170" y="200" width="406" height="356" rx="30" fill="url(#dark)" stroke="white" stroke-opacity="0.08" filter="url(#shadow)"/>
  <rect x="1170" y="580" width="406" height="356" rx="30" fill="url(#dark)" stroke="white" stroke-opacity="0.08" filter="url(#shadow)"/>

  <text x="58" y="238" fill="#7F8BA3" font-family="IBM Plex Mono, monospace" font-size="12">AAPL DAILY STRUCTURE</text>
  <text x="58" y="278" fill="#F2F5FA" font-family="Instrument Sans, Arial, sans-serif" font-size="32" font-weight="700">Bullish channel with projected destination and invalidation</text>

  <rect x="58" y="298" width="162" height="30" rx="15" fill="white" fill-opacity="0.06" stroke="white" stroke-opacity="0.08"/>
  <rect x="230" y="298" width="204" height="30" rx="15" fill="white" fill-opacity="0.06" stroke="white" stroke-opacity="0.08"/>
  <rect x="444" y="298" width="224" height="30" rx="15" fill="white" fill-opacity="0.06" stroke="white" stroke-opacity="0.08"/>
  <rect x="678" y="298" width="264" height="30" rx="15" fill="white" fill-opacity="0.06" stroke="white" stroke-opacity="0.08"/>
  <text x="139" y="317" text-anchor="middle" fill="#B9C7DC" font-family="IBM Plex Mono, monospace" font-size="11">BULLISH CHANNEL</text>
  <text x="332" y="317" text-anchor="middle" fill="#B9C7DC" font-family="IBM Plex Mono, monospace" font-size="11">BUY ZONE 181.60 - 185.20</text>
  <text x="556" y="317" text-anchor="middle" fill="#B9C7DC" font-family="IBM Plex Mono, monospace" font-size="11">SELL ZONE 194.90 - 198.10</text>
  <text x="810" y="317" text-anchor="middle" fill="#B9C7DC" font-family="IBM Plex Mono, monospace" font-size="11">DESTINATION 197.40 - 201.10</text>

  <rect x="58" y="348" width="1058" height="420" rx="24" fill="white" fill-opacity="0.02" stroke="white" stroke-opacity="0.05"/>

  <g opacity="0.18" stroke="#FFFFFF">
    <line x1="90" y1="390" x2="1084" y2="390"/>
    <line x1="90" y1="452" x2="1084" y2="452"/>
    <line x1="90" y1="514" x2="1084" y2="514"/>
    <line x1="90" y1="576" x2="1084" y2="576"/>
    <line x1="90" y1="638" x2="1084" y2="638"/>
    <line x1="90" y1="700" x2="1084" y2="700"/>
  </g>

  <rect x="90" y="620" width="994" height="46" fill="#3FBF7F" fill-opacity="0.11"/>
  <rect x="90" y="500" width="994" height="40" fill="#FF5C7A" fill-opacity="0.11"/>
  <rect x="90" y="448" width="994" height="34" fill="#5E86FF" fill-opacity="0.10"/>
  <rect x="90" y="414" width="994" height="24" fill="#A66BFF" fill-opacity="0.07"/>

  <line x1="90" y1="666" x2="1084" y2="706" stroke="#5BCF92" stroke-width="4"/>
  <line x1="90" y1="560" x2="1084" y2="600" stroke="#95A7C5" stroke-width="2" stroke-dasharray="7 7"/>
  <line x1="90" y1="454" x2="1084" y2="494" stroke="#FF4F6D" stroke-width="4"/>
  <path d="M90 606 C170 580 240 544 310 522 C400 493 460 464 550 456 C650 446 730 470 830 490 C930 510 1010 494 1084 470" stroke="#4B6BFF" stroke-width="5" fill="none"/>

  <g>
    <line x1="110" y1="660" x2="110" y2="610" stroke="#63D89A" stroke-width="1.4"/><rect x="105" y="626" width="10" height="22" fill="rgba(99,216,154,0.25)" stroke="#63D89A" stroke-width="1.2"/>
    <line x1="150" y1="640" x2="150" y2="590" stroke="#63D89A" stroke-width="1.4"/><rect x="145" y="608" width="10" height="20" fill="rgba(99,216,154,0.25)" stroke="#63D89A" stroke-width="1.2"/>
    <line x1="190" y1="618" x2="190" y2="562" stroke="#63D89A" stroke-width="1.4"/><rect x="185" y="580" width="10" height="22" fill="rgba(99,216,154,0.25)" stroke="#63D89A" stroke-width="1.2"/>
    <line x1="230" y1="594" x2="230" y2="548" stroke="#FF728C" stroke-width="1.4"/><rect x="225" y="564" width="10" height="18" fill="rgba(255,114,140,0.22)" stroke="#FF728C" stroke-width="1.2"/>
    <line x1="270" y1="580" x2="270" y2="526" stroke="#63D89A" stroke-width="1.4"/><rect x="265" y="542" width="10" height="24" fill="rgba(99,216,154,0.25)" stroke="#63D89A" stroke-width="1.2"/>
    <line x1="310" y1="558" x2="310" y2="510" stroke="#63D89A" stroke-width="1.4"/><rect x="305" y="526" width="10" height="20" fill="rgba(99,216,154,0.25)" stroke="#63D89A" stroke-width="1.2"/>
    <line x1="350" y1="540" x2="350" y2="492" stroke="#63D89A" stroke-width="1.4"/><rect x="345" y="506" width="10" height="22" fill="rgba(99,216,154,0.25)" stroke="#63D89A" stroke-width="1.2"/>
    <line x1="390" y1="528" x2="390" y2="474" stroke="#FF728C" stroke-width="1.4"/><rect x="385" y="490" width="10" height="20" fill="rgba(255,114,140,0.22)" stroke="#FF728C" stroke-width="1.2"/>
    <line x1="430" y1="518" x2="430" y2="466" stroke="#63D89A" stroke-width="1.4"/><rect x="425" y="478" width="10" height="24" fill="rgba(99,216,154,0.25)" stroke="#63D89A" stroke-width="1.2"/>
    <line x1="470" y1="510" x2="470" y2="456" stroke="#63D89A" stroke-width="1.4"/><rect x="465" y="468" width="10" height="26" fill="rgba(99,216,154,0.25)" stroke="#63D89A" stroke-width="1.2"/>
    <line x1="510" y1="500" x2="510" y2="450" stroke="#63D89A" stroke-width="1.4"/><rect x="505" y="462" width="10" height="22" fill="rgba(99,216,154,0.25)" stroke="#63D89A" stroke-width="1.2"/>
    <line x1="550" y1="496" x2="550" y2="444" stroke="#FF728C" stroke-width="1.4"/><rect x="545" y="458" width="10" height="18" fill="rgba(255,114,140,0.22)" stroke="#FF728C" stroke-width="1.2"/>
    <line x1="590" y1="490" x2="590" y2="438" stroke="#63D89A" stroke-width="1.4"/><rect x="585" y="448" width="10" height="24" fill="rgba(99,216,154,0.25)" stroke="#63D89A" stroke-width="1.2"/>
    <line x1="630" y1="482" x2="630" y2="432" stroke="#63D89A" stroke-width="1.4"/><rect x="625" y="440" width="10" height="28" fill="rgba(99,216,154,0.25)" stroke="#63D89A" stroke-width="1.2"/>
    <line x1="670" y1="488" x2="670" y2="438" stroke="#FF728C" stroke-width="1.4"/><rect x="665" y="450" width="10" height="20" fill="rgba(255,114,140,0.22)" stroke="#FF728C" stroke-width="1.2"/>
    <line x1="710" y1="496" x2="710" y2="444" stroke="#63D89A" stroke-width="1.4"/><rect x="705" y="456" width="10" height="26" fill="rgba(99,216,154,0.25)" stroke="#63D89A" stroke-width="1.2"/>
    <line x1="750" y1="502" x2="750" y2="452" stroke="#63D89A" stroke-width="1.4"/><rect x="745" y="464" width="10" height="22" fill="rgba(99,216,154,0.25)" stroke="#63D89A" stroke-width="1.2"/>
    <line x1="790" y1="510" x2="790" y2="460" stroke="#63D89A" stroke-width="1.4"/><rect x="785" y="472" width="10" height="24" fill="rgba(99,216,154,0.25)" stroke="#63D89A" stroke-width="1.2"/>
    <line x1="830" y1="522" x2="830" y2="474" stroke="#FF728C" stroke-width="1.4"/><rect x="825" y="488" width="10" height="18" fill="rgba(255,114,140,0.22)" stroke="#FF728C" stroke-width="1.2"/>
    <line x1="870" y1="530" x2="870" y2="480" stroke="#63D89A" stroke-width="1.4"/><rect x="865" y="492" width="10" height="24" fill="rgba(99,216,154,0.25)" stroke="#63D89A" stroke-width="1.2"/>
    <line x1="910" y1="520" x2="910" y2="470" stroke="#63D89A" stroke-width="1.4"/><rect x="905" y="482" width="10" height="22" fill="rgba(99,216,154,0.25)" stroke="#63D89A" stroke-width="1.2"/>
    <line x1="950" y1="506" x2="950" y2="456" stroke="#63D89A" stroke-width="1.4"/><rect x="945" y="468" width="10" height="22" fill="rgba(99,216,154,0.25)" stroke="#63D89A" stroke-width="1.2"/>
    <line x1="990" y1="498" x2="990" y2="448" stroke="#63D89A" stroke-width="1.4"/><rect x="985" y="458" width="10" height="24" fill="rgba(99,216,154,0.25)" stroke="#63D89A" stroke-width="1.2"/>
    <line x1="1030" y1="510" x2="1030" y2="462" stroke="#FF728C" stroke-width="1.4"/><rect x="1025" y="476" width="10" height="18" fill="rgba(255,114,140,0.22)" stroke="#FF728C" stroke-width="1.2"/>
  </g>

  <line x1="90" y1="430" x2="1084" y2="430" stroke="#A66BFF" stroke-width="1.2" stroke-dasharray="4 4"/>
  <line x1="90" y1="464" x2="1084" y2="464" stroke="#5E86FF" stroke-width="1.4" stroke-dasharray="4 4"/>
  <line x1="90" y1="548" x2="1084" y2="548" stroke="#F08A46" stroke-width="1.6" stroke-dasharray="8 5"/>
  <text x="1096" y="433" fill="#A66BFF" font-family="IBM Plex Mono, monospace" font-size="11">Target 2</text>
  <text x="1096" y="467" fill="#7E9BFF" font-family="IBM Plex Mono, monospace" font-size="11">Target 1</text>
  <text x="1096" y="551" fill="#F08A46" font-family="IBM Plex Mono, monospace" font-size="11">Invalidation</text>

  <circle cx="310" cy="524" r="5" fill="#FF728C" stroke="#0E121A" stroke-width="3"/>
  <circle cx="470" cy="512" r="5" fill="#63D89A" stroke="#0E121A" stroke-width="3"/>
  <circle cx="710" cy="474" r="5" fill="#63D89A" stroke="#0E121A" stroke-width="3"/>
  <circle cx="950" cy="458" r="5" fill="#FF728C" stroke="#0E121A" stroke-width="3"/>

  <rect x="58" y="792" width="334" height="118" rx="20" fill="white" fill-opacity="0.04" stroke="white" stroke-opacity="0.08"/>
  <rect x="408" y="792" width="334" height="118" rx="20" fill="white" fill-opacity="0.04" stroke="white" stroke-opacity="0.08"/>
  <rect x="758" y="792" width="358" height="118" rx="20" fill="white" fill-opacity="0.04" stroke="white" stroke-opacity="0.08"/>
  <text x="80" y="820" fill="#7F8BA3" font-family="IBM Plex Mono, monospace" font-size="11">BUY ZONE</text>
  <text x="430" y="820" fill="#7F8BA3" font-family="IBM Plex Mono, monospace" font-size="11">SELL ZONE</text>
  <text x="780" y="820" fill="#7F8BA3" font-family="IBM Plex Mono, monospace" font-size="11">TARGET / STOP MAP</text>
  <text x="80" y="858" fill="#F6F8FC" font-family="Instrument Sans, Arial, sans-serif" font-size="28" font-weight="700">181.60 - 185.20</text>
  <text x="430" y="858" fill="#F6F8FC" font-family="Instrument Sans, Arial, sans-serif" font-size="28" font-weight="700">194.90 - 198.10</text>
  <text x="780" y="858" fill="#F6F8FC" font-family="Instrument Sans, Arial, sans-serif" font-size="28" font-weight="700">T1 197.40 - 201.10</text>
  <text x="780" y="888" fill="#AAB6C9" font-family="Instrument Sans, Arial, sans-serif" font-size="15">T2 202.10 - 205.60 | Invalidation 188.20</text>

  <text x="1198" y="238" fill="#F2F5FA" font-family="IBM Plex Mono, monospace" font-size="13" letter-spacing="1.5">STRUCTURE TAB</text>
  <text x="1198" y="276" fill="#F2F5FA" font-family="Instrument Sans, Arial, sans-serif" font-size="30" font-weight="700">HH / HL sequence intact</text>
  <text x="1198" y="308" fill="#AAB6C9" font-family="Instrument Sans, Arial, sans-serif" font-size="15">The model now explains the thesis as structure, not just indicator output.</text>
  <rect x="1198" y="334" width="350" height="50" rx="18" fill="white" fill-opacity="0.05" stroke="white" stroke-opacity="0.08"/>
  <text x="1220" y="362" fill="#B9C7DC" font-family="IBM Plex Mono, monospace" font-size="12">TREND STATE  BULLISH_CHANNEL</text>
  <rect x="1198" y="396" width="350" height="50" rx="18" fill="white" fill-opacity="0.05" stroke="white" stroke-opacity="0.08"/>
  <text x="1220" y="424" fill="#B9C7DC" font-family="IBM Plex Mono, monospace" font-size="12">LAST SWING HIGH 196.80</text>
  <rect x="1198" y="458" width="350" height="50" rx="18" fill="white" fill-opacity="0.05" stroke="white" stroke-opacity="0.08"/>
  <text x="1220" y="486" fill="#B9C7DC" font-family="IBM Plex Mono, monospace" font-size="12">LAST SWING LOW 183.10</text>

  <text x="1198" y="618" fill="#F2F5FA" font-family="IBM Plex Mono, monospace" font-size="13" letter-spacing="1.5">PROJECTION-AWARE REPLAY</text>
  <text x="1198" y="656" fill="#F2F5FA" font-family="Instrument Sans, Arial, sans-serif" font-size="30" font-weight="700">Entries and exits follow zones</text>
  <text x="1198" y="688" fill="#AAB6C9" font-family="Instrument Sans, Arial, sans-serif" font-size="15">Backtests now use stored buy/sell/target/invalidation zones, not just BUY/SELL/HOLD.</text>
  <rect x="1198" y="714" width="350" height="54" rx="18" fill="white" fill-opacity="0.05" stroke="white" stroke-opacity="0.08"/>
  <text x="1220" y="746" fill="#63D89A" font-family="IBM Plex Mono, monospace" font-size="12">ENTRY_LONG  181.60 - 185.20</text>
  <rect x="1198" y="778" width="350" height="54" rx="18" fill="white" fill-opacity="0.05" stroke="white" stroke-opacity="0.08"/>
  <text x="1220" y="810" fill="#7E9BFF" font-family="IBM Plex Mono, monospace" font-size="12">TARGET_1    201.10</text>
  <rect x="1198" y="842" width="350" height="54" rx="18" fill="white" fill-opacity="0.05" stroke="white" stroke-opacity="0.08"/>
  <text x="1220" y="874" fill="#F08A46" font-family="IBM Plex Mono, monospace" font-size="12">INVALIDATION 188.20</text>
</svg>
